<?xml version="1.0" encoding="utf-8"?>
<!-- Generator: Adobe Illustrator 24.0.1, SVG Export Plug-In . SVG Version: 6.00 Build 0)  -->
<svg version="1.1" id="Layer_1" xmlns="http://www.w3.org/2000/svg" xmlns:xlink="http://www.w3.org/1999/xlink" x="0px" y="0px"
	 viewBox="0 0 71.2 63.5" style="enable-background:new 0 0 71.2 63.5;" xml:space="preserve">
<style type="text/css">
	.st0{fill:#25A9E0;}
	.st1{fill:#F05A28;}
</style>
<path class="st0" d="M47.7,46.3l15.2-15.2c3.1-3.1,4.7-7.3,4.7-11.4c0-4.1-1.6-8.3-4.7-11.4l0,0c-3.1-3.1-7.3-4.7-11.4-4.7
	c-4.1,0-8.3,1.6-11.4,4.7l-4.5,4.5l-4.4-4.4C28,5.2,23.9,3.6,19.7,3.6v0c-4.1,0-8.3,1.6-11.4,4.7c-3.1,3.1-4.7,7.3-4.7,11.4
	c0,4.1,1.6,8.3,4.7,11.4L38.1,61l-2.5,2.5L5.7,33.7C1.9,29.9,0,24.8,0,19.8C0,14.7,1.9,9.6,5.7,5.8c3.8-3.8,8.9-5.7,14-5.7v0
	c5.1,0,10.1,1.9,14,5.8l1.9,1.9l2-2c3.8-3.8,8.9-5.7,14-5.7c5.1,0,10.1,1.9,13.9,5.7l0,0c3.8,3.8,5.7,8.9,5.7,13.9
	c0,5.1-1.9,10.1-5.7,13.9L50.2,48.8L47.7,46.3L47.7,46.3z"/>
<path class="st1" d="M43.6,40.3L57.8,26c1.7-1.7,2.6-4,2.6-6.3s-0.9-4.6-2.6-6.3c-1.7-1.7-4-2.6-6.4-2.6v0c-2.3,0-4.6,0.9-6.3,2.6
	l-9.6,9.6l-9.5-9.5c-1.7-1.7-4-2.6-6.3-2.6v0c-2.3,0-4.6,0.9-6.3,2.6c-1.7,1.7-2.6,4-2.6,6.3h0c0,2.3,0.9,4.6,2.6,6.3l29.8,29.8
	l-2.5,2.5L10.8,28.6c-2.4-2.4-3.7-5.7-3.7-8.9h0c0-3.2,1.2-6.4,3.7-8.9c2.4-2.4,5.7-3.7,8.9-3.7v0c3.2,0,6.4,1.2,8.9,3.7l7,7l7-7
	c2.4-2.4,5.7-3.7,8.9-3.7v0c3.2,0,6.4,1.2,8.9,3.7c2.4,2.4,3.7,5.7,3.7,8.9s-1.2,6.4-3.7,8.9L46.1,42.8L43.6,40.3L43.6,40.3z"/>
<path class="st0" d="M38.5,35.3L52.8,21l0,0c0.3-0.3,0.5-0.8,0.5-1.3c0-0.5-0.2-0.9-0.5-1.3l0,0c-0.3-0.3-0.8-0.5-1.3-0.5
	c-0.5,0-0.9,0.2-1.3,0.5L35.6,33L21,18.5c-0.3-0.3-0.8-0.5-1.3-0.5s-0.9,0.2-1.3,0.5h0c-0.3,0.3-0.5,0.8-0.5,1.3
	c0,0.5,0.2,0.9,0.5,1.3l0,0l29.8,29.8l-2.5,2.5L15.9,23.6v0c-1-1-1.6-2.4-1.6-3.8c0-1.4,0.5-2.8,1.6-3.8l0,0c1-1,2.4-1.6,3.8-1.6
	c1.4,0,2.8,0.5,3.8,1.6l12,12l12.1-12.1c1-1,2.4-1.6,3.8-1.6c1.4,0,2.8,0.5,3.8,1.6h0c1,1,1.6,2.4,1.6,3.8c0,1.4-0.5,2.8-1.6,3.8v0
	L41,37.8L38.5,35.3L38.5,35.3z"/>
</svg>
