<?xml version="1.0" encoding="utf-8"?>
<!-- Generator: Adobe Illustrator 24.0.1, SVG Export Plug-In . SVG Version: 6.00 Build 0)  -->
<svg version="1.1" id="Layer_1" xmlns="http://www.w3.org/2000/svg" xmlns:xlink="http://www.w3.org/1999/xlink" x="0px" y="0px"
	 viewBox="0 0 200 63.5" style="enable-background:new 0 0 200 63.5;" xml:space="preserve">
<style type="text/css">
	.st0{fill:#25A9E0;}
	.st1{fill:#F05A28;}
</style>
<g>
	<path class="st0" d="M47.7,46.3l15.2-15.2c3.1-3.1,4.7-7.3,4.7-11.4c0-4.1-1.6-8.3-4.7-11.4l0,0c-3.1-3.1-7.3-4.7-11.4-4.7
		c-4.1,0-8.3,1.6-11.4,4.7l-4.5,4.5l-4.4-4.4C28,5.2,23.9,3.6,19.7,3.6v0c-4.1,0-8.3,1.6-11.4,4.7c-3.1,3.1-4.7,7.3-4.7,11.4
		c0,4.1,1.6,8.3,4.7,11.4L38.1,61l-2.5,2.5L5.7,33.7C1.9,29.9,0,24.8,0,19.8C0,14.7,1.9,9.6,5.7,5.8c3.8-3.8,8.9-5.7,14-5.7v0
		c5.1,0,10.1,1.9,14,5.8l1.9,1.9l2-2c3.8-3.8,8.9-5.7,14-5.7c5.1,0,10.1,1.9,13.9,5.7l0,0c3.8,3.8,5.7,8.9,5.7,13.9
		c0,5.1-1.9,10.1-5.7,13.9L50.2,48.8L47.7,46.3L47.7,46.3z"/>
	<path class="st1" d="M43.6,40.3L57.8,26c1.7-1.7,2.6-4,2.6-6.3s-0.9-4.6-2.6-6.3c-1.7-1.7-4-2.6-6.4-2.6v0c-2.3,0-4.6,0.9-6.3,2.6
		l-9.6,9.6l-9.5-9.5c-1.7-1.7-4-2.6-6.3-2.6v0c-2.3,0-4.6,0.9-6.3,2.6c-1.7,1.7-2.6,4-2.6,6.3h0c0,2.3,0.9,4.6,2.6,6.3l29.8,29.8
		l-2.5,2.5L10.8,28.6c-2.4-2.4-3.7-5.7-3.7-8.9h0c0-3.2,1.2-6.4,3.7-8.9c2.4-2.4,5.7-3.7,8.9-3.7v0c3.2,0,6.4,1.2,8.9,3.7l7,7l7-7
		c2.4-2.4,5.7-3.7,8.9-3.7v0c3.2,0,6.4,1.2,8.9,3.7c2.4,2.4,3.7,5.7,3.7,8.9s-1.2,6.4-3.7,8.9L46.1,42.8L43.6,40.3L43.6,40.3z"/>
	<path class="st0" d="M38.5,35.3L52.8,21l0,0c0.3-0.3,0.5-0.8,0.5-1.3c0-0.5-0.2-0.9-0.5-1.3l0,0c-0.3-0.3-0.8-0.5-1.3-0.5
		c-0.5,0-0.9,0.2-1.3,0.5L35.6,33L21,18.5c-0.3-0.3-0.8-0.5-1.3-0.5s-0.9,0.2-1.3,0.5h0c-0.3,0.3-0.5,0.8-0.5,1.3
		c0,0.5,0.2,0.9,0.5,1.3l0,0l29.8,29.8l-2.5,2.5L15.9,23.6v0c-1-1-1.6-2.4-1.6-3.8c0-1.4,0.5-2.8,1.6-3.8l0,0c1-1,2.4-1.6,3.8-1.6
		c1.4,0,2.8,0.5,3.8,1.6l12,12l12.1-12.1c1-1,2.4-1.6,3.8-1.6c1.4,0,2.8,0.5,3.8,1.6h0c1,1,1.6,2.4,1.6,3.8c0,1.4-0.5,2.8-1.6,3.8v0
		L41,37.8L38.5,35.3L38.5,35.3z"/>
	<g>
		<g>
			<path class="st1" d="M82.3,3.9h5.8v8.2h0.1c0.5-0.9,1.2-1.5,2.1-1.9c0.9-0.4,1.9-0.6,2.9-0.6c0.5,0,0.9,0,1.4,0.1
				c0.5,0.1,1,0.2,1.4,0.4c0.5,0.2,0.9,0.4,1.3,0.7c0.4,0.3,0.8,0.6,1.1,1c0.4,0.5,0.7,1,1,1.4c0.2,0.5,0.4,1,0.5,1.5
				c0.1,0.6,0.2,1.2,0.2,1.8c0,0.7,0.1,1.4,0.1,2.3v10.8h-5.8V19.1c0-0.2,0-0.6-0.1-1c0-0.5-0.1-0.9-0.3-1.3
				c-0.2-0.4-0.5-0.8-0.9-1.2c-0.4-0.3-1-0.5-1.8-0.5c-0.8,0-1.4,0.2-1.9,0.5c-0.4,0.3-0.8,0.7-1,1.1c-0.2,0.4-0.3,0.8-0.3,1.3
				c0,0.4-0.1,0.8-0.1,1v10.7h-5.8V3.9z"/>
			<path class="st1" d="M123.8,28c0,0.9-0.7,1.6-1.6,1.6H118v-2.1h-0.1c-0.3,0.5-0.6,0.9-1,1.2c-0.4,0.3-0.8,0.6-1.4,0.9
				c-0.5,0.2-1.1,0.4-1.6,0.5c-0.6,0.1-1.1,0.2-1.7,0.2c-1.5,0-2.9-0.3-4.1-0.8s-2.2-1.3-3-2.3c-0.8-1-1.5-2-1.9-3.3
				c-0.4-1.2-0.7-2.6-0.7-4c0-1.6,0.3-3,0.8-4.3c0.5-1.3,1.2-2.4,2.1-3.3c0.9-0.9,1.9-1.6,3.1-2.1c1.2-0.5,2.4-0.7,3.7-0.7
				c0.8,0,1.5,0.1,2.1,0.3c0.6,0.2,1.2,0.4,1.6,0.7c0.5,0.3,0.8,0.6,1.1,0.9s0.5,0.6,0.7,0.9h0.1v-2.1h4.2c0.9,0,1.6,0.7,1.6,1.6V28
				z M108.3,20c0,0.5,0.1,1,0.3,1.5c0.2,0.6,0.5,1.1,0.8,1.6c0.4,0.5,0.9,0.9,1.5,1.3c0.6,0.3,1.3,0.5,2.2,0.5
				c0.9,0,1.7-0.2,2.3-0.5s1.1-0.8,1.5-1.3c0.4-0.5,0.7-1,0.8-1.6c0.2-0.6,0.2-1.1,0.2-1.6c0-0.6-0.1-1.2-0.3-1.7
				c-0.2-0.6-0.5-1.1-0.9-1.6c-0.4-0.5-0.9-0.9-1.5-1.1c-0.6-0.3-1.3-0.4-2.1-0.4c-0.8,0-1.5,0.2-2.1,0.5c-0.6,0.3-1.1,0.7-1.5,1.2
				c-0.4,0.5-0.7,1-0.9,1.6C108.4,18.9,108.3,19.5,108.3,20z"/>
			<path class="st1" d="M135.3,15.7c0-0.1,0-0.2-0.1-0.4c0-0.2-0.1-0.3-0.2-0.5c-0.1-0.2-0.3-0.3-0.5-0.4c-0.2-0.1-0.6-0.2-1-0.2
				c-0.6,0-1,0.2-1.3,0.5c-0.2,0.3-0.4,0.6-0.4,0.8c0,0.5,0.3,1,0.9,1.3c0.6,0.3,1.3,0.6,2.1,0.8c0.8,0.2,1.6,0.5,2.4,0.7
				c0.8,0.3,1.5,0.6,2.2,1.1c0.6,0.4,1.2,1,1.5,1.7c0.4,0.7,0.6,1.5,0.6,2.6c0,1-0.2,1.9-0.6,2.7c-0.4,0.8-1,1.5-1.7,2.1
				c-0.7,0.6-1.6,1-2.5,1.3c-1,0.3-2,0.5-3,0.5c-0.7,0-1.5-0.1-2.4-0.3c-0.9-0.2-1.7-0.5-2.4-1c-0.8-0.5-1.4-1.1-2-2
				c-0.6-0.8-0.9-1.9-1-3.1h5.7c0.1,0.4,0.2,0.8,0.4,1c0.2,0.2,0.4,0.4,0.7,0.5c0.2,0.1,0.5,0.2,0.7,0.2c0.2,0,0.3,0,0.4,0
				c0.5,0,0.9-0.1,1.4-0.4s0.6-0.6,0.6-1.1c0-0.4-0.1-0.7-0.3-0.9c-0.2-0.2-0.5-0.5-0.9-0.7c-0.4-0.2-0.9-0.4-1.6-0.7
				c-0.7-0.2-1.4-0.5-2.4-0.9c-0.6-0.2-1.2-0.5-1.8-0.8c-0.6-0.3-1-0.7-1.5-1.1c-0.4-0.4-0.7-0.9-1-1.4c-0.2-0.5-0.4-1.1-0.4-1.8
				c0-1,0.2-1.8,0.6-2.6c0.4-0.8,1-1.5,1.6-2c0.7-0.6,1.5-1,2.4-1.3c0.9-0.3,1.9-0.5,2.9-0.5c0.6,0,1.3,0.1,2.2,0.2
				c0.8,0.2,1.6,0.5,2.3,0.9c0.7,0.4,1.4,1.1,1.9,1.8c0.6,0.8,0.9,1.8,1,3.1H135.3z"/>
			<path class="st1" d="M151.1,10.3h1.2c0.9,0,1.6,0.7,1.6,1.6v1.2c0,0.9-0.7,1.6-1.6,1.6h-1.2V28c0,0.9-0.7,1.6-1.6,1.6h-2.6
				c-0.9,0-1.6-0.7-1.6-1.6V14.7H144c-0.9,0-1.6-0.7-1.6-1.6v-1.2c0-0.9,0.7-1.6,1.6-1.6h1.3V5.5c0-0.9,0.7-1.6,1.6-1.6h2.6
				c0.9,0,1.6,0.7,1.6,1.6V10.3z"/>
			<path class="st1" d="M175.8,28c0,0.9-0.7,1.6-1.6,1.6H170v-2.1h-0.1c-0.3,0.5-0.6,0.9-1,1.2c-0.4,0.3-0.8,0.6-1.4,0.9
				c-0.5,0.2-1.1,0.4-1.6,0.5c-0.6,0.1-1.1,0.2-1.7,0.2c-1.5,0-2.9-0.3-4.1-0.8c-1.2-0.6-2.2-1.3-3-2.3c-0.8-1-1.5-2-1.9-3.3
				c-0.4-1.2-0.7-2.6-0.7-4c0-1.6,0.3-3,0.8-4.3c0.5-1.3,1.2-2.4,2.1-3.3c0.9-0.9,1.9-1.6,3.1-2.1c1.2-0.5,2.4-0.7,3.7-0.7
				c0.8,0,1.5,0.1,2.1,0.3c0.6,0.2,1.2,0.4,1.6,0.7c0.5,0.3,0.8,0.6,1.1,0.9c0.3,0.3,0.5,0.6,0.7,0.9h0.1v-2.1h4.2
				c0.9,0,1.6,0.7,1.6,1.6V28z M160.3,20c0,0.5,0.1,1,0.3,1.5c0.2,0.6,0.5,1.1,0.8,1.6c0.4,0.5,0.9,0.9,1.5,1.3
				c0.6,0.3,1.3,0.5,2.2,0.5c0.9,0,1.7-0.2,2.3-0.5s1.1-0.8,1.5-1.3c0.4-0.5,0.7-1,0.8-1.6c0.2-0.6,0.2-1.1,0.2-1.6
				c0-0.6-0.1-1.2-0.3-1.7c-0.2-0.6-0.5-1.1-0.9-1.6c-0.4-0.5-0.9-0.9-1.5-1.1c-0.6-0.3-1.3-0.4-2.1-0.4c-0.8,0-1.5,0.2-2.1,0.5
				c-0.6,0.3-1.1,0.7-1.5,1.2c-0.4,0.5-0.7,1-0.9,1.6C160.4,18.9,160.3,19.5,160.3,20z"/>
		</g>
		<g>
			<path class="st0" d="M82.3,41.7c0-0.9,0.7-1.6,1.6-1.6h3.8v2.1h0.1c0.1-0.2,0.3-0.5,0.5-0.8c0.2-0.3,0.5-0.6,0.9-0.9
				c0.4-0.3,0.8-0.5,1.4-0.7c0.6-0.2,1.3-0.3,2.1-0.3v5.8c-0.7,0-1.3,0.1-1.8,0.2c-0.6,0.1-1,0.3-1.4,0.5c-0.4,0.3-0.7,0.6-0.9,1.1
				c-0.2,0.5-0.3,1.1-0.3,1.8v9c0,0.9-0.7,1.6-1.6,1.6h-2.6c-0.9,0-1.6-0.7-1.6-1.6V41.7z"/>
			<path class="st0" d="M109.8,53.3c1.3,0,2.1,1.5,1.3,2.6c-0.1,0.1-0.2,0.2-0.2,0.3c-0.7,0.8-1.4,1.5-2.2,2.1
				c-1.6,1.2-3.5,1.7-5.5,1.7c-1.4,0-2.7-0.3-3.9-0.8C98,58.7,96.9,58,96,57c-0.9-0.9-1.7-2-2.2-3.3c-0.5-1.2-0.8-2.6-0.8-4
				c0-1.3,0.2-2.6,0.7-3.9c0.5-1.3,1.2-2.4,2.1-3.3c0.9-1,2-1.7,3.2-2.3c1.2-0.6,2.6-0.9,4.1-0.9c1.5,0,2.8,0.3,4.1,0.8
				c1.3,0.5,2.3,1.3,3.2,2.2c0.9,1,1.6,2.1,2.1,3.4c0.5,1.3,0.8,2.7,0.8,4.1c0,0.4,0,0.7,0,0.9c0,0.2-0.1,0.4-0.1,0.6H98.6
				c0.2,1.2,0.7,2.1,1.5,2.7c0.8,0.6,1.8,1,3,1c0.9,0,1.6-0.2,2.1-0.5c0.4-0.2,0.7-0.5,1-0.8c0.3-0.3,0.7-0.5,1.1-0.5H109.8z
				 M107.5,47.6c-0.1-0.3-0.2-0.6-0.4-1c-0.2-0.4-0.4-0.7-0.8-1.1c-0.3-0.3-0.8-0.6-1.3-0.9c-0.5-0.2-1.2-0.3-1.9-0.3
				c-0.7,0-1.4,0.1-1.9,0.3c-0.5,0.2-1,0.5-1.3,0.9c-0.3,0.3-0.6,0.7-0.8,1.1c-0.2,0.4-0.3,0.7-0.4,1H107.5z"/>
			<path class="st0" d="M115.8,44.4h-2.2v-4.4h2.2v-1c0-1.3,0.2-2.4,0.7-3.2s1.1-1.4,1.9-1.8c0.8-0.4,1.6-0.7,2.4-0.8
				c0.9-0.1,1.6-0.2,2.3-0.2h0.8v4.4h-0.7c-0.1,0-0.3,0-0.5,0.1c-0.2,0-0.4,0.1-0.6,0.2c-0.2,0.1-0.3,0.3-0.5,0.5
				c-0.1,0.2-0.2,0.5-0.2,1v0.8h2.4v4.4h-2.4v13.3c0,0.9-0.7,1.6-1.6,1.6h-2.6c-0.9,0-1.6-0.7-1.6-1.6V44.4z"/>
			<path class="st0" d="M145.2,57.8c0,0.9-0.7,1.6-1.6,1.6h-4.2v-2.1h-0.1c-0.3,0.5-0.6,0.9-1,1.2c-0.4,0.3-0.8,0.6-1.4,0.9
				c-0.5,0.2-1.1,0.4-1.6,0.5c-0.6,0.1-1.1,0.2-1.7,0.2c-1.5,0-2.9-0.3-4.1-0.8c-1.2-0.6-2.2-1.3-3-2.3c-0.8-1-1.5-2-1.9-3.3
				c-0.4-1.2-0.7-2.6-0.7-4c0-1.6,0.3-3,0.8-4.3c0.5-1.3,1.2-2.4,2.1-3.3c0.9-0.9,1.9-1.6,3.1-2.1c1.2-0.5,2.4-0.7,3.7-0.7
				c0.8,0,1.5,0.1,2.1,0.3c0.6,0.2,1.2,0.4,1.6,0.7c0.5,0.3,0.8,0.6,1.1,0.9c0.3,0.3,0.5,0.6,0.7,0.9h0.1v-2.1h4.2
				c0.9,0,1.6,0.7,1.6,1.6V57.8z M129.8,49.8c0,0.5,0.1,1,0.3,1.5c0.2,0.6,0.5,1.1,0.8,1.6c0.4,0.5,0.9,0.9,1.5,1.3
				c0.6,0.3,1.3,0.5,2.2,0.5c0.9,0,1.7-0.2,2.3-0.5c0.6-0.3,1.1-0.8,1.5-1.3c0.4-0.5,0.7-1,0.8-1.6c0.2-0.6,0.2-1.1,0.2-1.6
				c0-0.6-0.1-1.2-0.3-1.7c-0.2-0.6-0.5-1.1-0.9-1.6c-0.4-0.5-0.9-0.9-1.5-1.1c-0.6-0.3-1.3-0.4-2.1-0.4c-0.8,0-1.5,0.2-2.1,0.5
				c-0.6,0.3-1.1,0.7-1.5,1.2c-0.4,0.5-0.7,1-0.9,1.6C129.9,48.6,129.8,49.2,129.8,49.8z"/>
			<path class="st0" d="M150.4,33.6h2.6c0.9,0,1.6,0.7,1.6,1.6V47h0.1l4.9-6.4c0.3-0.4,0.8-0.6,1.3-0.6h2.6c1.4,0,2.1,1.6,1.2,2.6
				l-5,5.9l5.5,8.3c0.7,1.1-0.1,2.5-1.3,2.5H161c-0.6,0-1.1-0.3-1.4-0.8l-5-8.5h-0.1v7.7c0,0.9-0.7,1.6-1.6,1.6h-2.6
				c-0.9,0-1.6-0.7-1.6-1.6V35.2C148.8,34.3,149.5,33.6,150.4,33.6z"/>
			<path class="st0" d="M186.8,57.8c0,0.9-0.7,1.6-1.6,1.6H181v-2.1h-0.1c-0.3,0.5-0.6,0.9-1,1.2c-0.4,0.3-0.8,0.6-1.4,0.9
				c-0.5,0.2-1.1,0.4-1.6,0.5c-0.6,0.1-1.1,0.2-1.7,0.2c-1.5,0-2.9-0.3-4.1-0.8s-2.2-1.3-3-2.3c-0.8-1-1.5-2-1.9-3.3
				c-0.4-1.2-0.7-2.6-0.7-4c0-1.6,0.3-3,0.8-4.3c0.5-1.3,1.2-2.4,2.1-3.3c0.9-0.9,1.9-1.6,3.1-2.1c1.2-0.5,2.4-0.7,3.7-0.7
				c0.8,0,1.5,0.1,2.1,0.3c0.6,0.2,1.2,0.4,1.6,0.7c0.5,0.3,0.8,0.6,1.1,0.9c0.3,0.3,0.5,0.6,0.7,0.9h0.1v-2.1h4.2
				c0.9,0,1.6,0.7,1.6,1.6V57.8z M171.3,49.8c0,0.5,0.1,1,0.3,1.5c0.2,0.6,0.5,1.1,0.8,1.6c0.4,0.5,0.9,0.9,1.5,1.3
				c0.6,0.3,1.3,0.5,2.2,0.5c0.9,0,1.7-0.2,2.3-0.5c0.6-0.3,1.1-0.8,1.5-1.3c0.4-0.5,0.7-1,0.8-1.6c0.2-0.6,0.2-1.1,0.2-1.6
				c0-0.6-0.1-1.2-0.3-1.7c-0.2-0.6-0.5-1.1-0.9-1.6c-0.4-0.5-0.9-0.9-1.5-1.1c-0.6-0.3-1.3-0.4-2.1-0.4c-0.8,0-1.5,0.2-2.1,0.5
				c-0.6,0.3-1.1,0.7-1.5,1.2c-0.4,0.5-0.7,1-0.9,1.6C171.4,48.6,171.3,49.2,171.3,49.8z"/>
			<path class="st0" d="M197.2,40.1h1.2c0.9,0,1.6,0.7,1.6,1.6v1.2c0,0.9-0.7,1.6-1.6,1.6h-1.2v13.3c0,0.9-0.7,1.6-1.6,1.6H193
				c-0.9,0-1.6-0.7-1.6-1.6V44.4h-1.3c-0.9,0-1.6-0.7-1.6-1.6v-1.2c0-0.9,0.7-1.6,1.6-1.6h1.3v-4.8c0-0.9,0.7-1.6,1.6-1.6h2.6
				c0.9,0,1.6,0.7,1.6,1.6V40.1z"/>
		</g>
	</g>
</g>
</svg>
