<?xml version="1.0" encoding="utf-8"?>
<!-- Generator: Adobe Illustrator 24.0.1, SVG Export Plug-In . SVG Version: 6.00 Build 0)  -->
<svg version="1.1" id="Layer_1" xmlns="http://www.w3.org/2000/svg" xmlns:xlink="http://www.w3.org/1999/xlink" x="0px" y="0px"
	 width="233.9px" height="63.5px" viewBox="0 0 233.9 63.5" style="enable-background:new 0 0 233.9 63.5;" xml:space="preserve">
<style type="text/css">
	.st0{fill:#26A7DF;}
	.st1{fill:#F05A2A;}
</style>
<g>
	<path class="st0" d="M47.7,46.3l15.2-15.2c3.1-3.1,4.7-7.3,4.7-11.4c0-4.1-1.6-8.3-4.7-11.4l0,0c-3.1-3.1-7.3-4.7-11.4-4.7
		c-4.1,0-8.3,1.6-11.4,4.7l-4.5,4.5l-4.4-4.4C28,5.2,23.9,3.6,19.7,3.6v0c-4.1,0-8.3,1.6-11.4,4.7c-3.1,3.1-4.7,7.3-4.7,11.4
		c0,4.1,1.6,8.3,4.7,11.4L38.1,61l-2.5,2.5L5.7,33.7C1.9,29.9,0,24.8,0,19.8C0,14.7,1.9,9.6,5.7,5.8c3.8-3.8,8.9-5.7,14-5.7v0
		c5.1,0,10.1,1.9,14,5.8l1.9,1.9l2-2c3.8-3.8,8.9-5.7,14-5.7c5.1,0,10.1,1.9,13.9,5.7l0,0c3.8,3.8,5.7,8.9,5.7,13.9
		c0,5.1-1.9,10.1-5.7,13.9L50.2,48.8L47.7,46.3L47.7,46.3z"/>
	<path class="st1" d="M43.6,40.3L57.8,26c1.7-1.7,2.6-4,2.6-6.3s-0.9-4.6-2.6-6.3c-1.7-1.7-4-2.6-6.4-2.6v0c-2.3,0-4.6,0.9-6.3,2.6
		l-9.6,9.6l-9.5-9.5c-1.7-1.7-4-2.6-6.3-2.6v0c-2.3,0-4.6,0.9-6.3,2.6c-1.7,1.7-2.6,4-2.6,6.3h0c0,2.3,0.9,4.6,2.6,6.3l29.8,29.8
		l-2.5,2.5L10.8,28.6c-2.4-2.4-3.7-5.7-3.7-8.9h0c0-3.2,1.2-6.4,3.7-8.9c2.4-2.4,5.7-3.7,8.9-3.7v0c3.2,0,6.4,1.2,8.9,3.7l7,7l7-7
		c2.4-2.4,5.7-3.7,8.9-3.7v0c3.2,0,6.4,1.2,8.9,3.7c2.4,2.4,3.7,5.7,3.7,8.9s-1.2,6.4-3.7,8.9L46.1,42.8L43.6,40.3L43.6,40.3z"/>
	<path class="st0" d="M38.5,35.3L52.8,21l0,0c0.3-0.3,0.5-0.8,0.5-1.3c0-0.5-0.2-0.9-0.5-1.3l0,0c-0.3-0.3-0.8-0.5-1.3-0.5
		c-0.5,0-0.9,0.2-1.3,0.5L35.6,33L21,18.5c-0.3-0.3-0.8-0.5-1.3-0.5s-0.9,0.2-1.3,0.5h0c-0.3,0.3-0.5,0.8-0.5,1.3
		c0,0.5,0.2,0.9,0.5,1.3l0,0l29.8,29.8l-2.5,2.5L15.9,23.6v0c-1-1-1.6-2.4-1.6-3.8c0-1.4,0.5-2.8,1.6-3.8l0,0c1-1,2.4-1.6,3.8-1.6
		c1.4,0,2.8,0.5,3.8,1.6l12,12l12.1-12.1c1-1,2.4-1.6,3.8-1.6c1.4,0,2.8,0.5,3.8,1.6h0c1,1,1.6,2.4,1.6,3.8c0,1.4-0.5,2.8-1.6,3.8v0
		L41,37.8L38.5,35.3L38.5,35.3z"/>
	<g>
		<g>
			<path class="st0" d="M80.3,38.2h6c0.5,0,1.1,0,1.8,0c0.7,0,1.4,0.2,2.1,0.4c0.7,0.2,1.5,0.5,2.2,1c0.7,0.5,1.4,1.1,2,2
				c0.6,0.9,1.1,1.8,1.3,2.7c0.2,0.9,0.4,1.9,0.4,2.9c0,1.2-0.2,2.4-0.5,3.5c-0.3,1.1-0.9,2.1-1.6,2.9c-0.7,0.8-1.7,1.5-2.9,2
				c-1.2,0.5-2.6,0.7-4.4,0.7h-6.3V38.2z M85,52.3h2c0.9,0,1.6-0.1,2.2-0.4c0.6-0.3,1-0.6,1.4-1.1c0.3-0.5,0.6-1,0.7-1.6
				c0.1-0.6,0.2-1.2,0.2-1.9c0-0.5-0.1-1.1-0.2-1.7c-0.1-0.6-0.4-1.2-0.7-1.7c-0.1-0.2-0.3-0.4-0.5-0.6c-0.2-0.2-0.4-0.4-0.7-0.5
				s-0.6-0.3-1-0.4c-0.4-0.1-0.8-0.1-1.3-0.1h-2V52.3z"/>
			<path class="st0" d="M112.9,56.3h-4.1v-1.5h0c-0.2,0.3-0.4,0.6-0.7,0.9c-0.3,0.2-0.6,0.5-1,0.6s-0.7,0.3-1.1,0.4
				s-0.8,0.1-1.2,0.1c-1.1,0-2-0.2-2.9-0.6c-0.9-0.4-1.6-0.9-2.1-1.6c-0.6-0.7-1-1.4-1.3-2.3c-0.3-0.9-0.5-1.8-0.5-2.8
				c0-1.1,0.2-2.1,0.6-3c0.4-0.9,0.9-1.7,1.5-2.3c0.6-0.6,1.3-1.1,2.2-1.4s1.7-0.5,2.6-0.5c0.6,0,1.1,0.1,1.5,0.2
				c0.4,0.1,0.8,0.3,1.2,0.5c0.3,0.2,0.6,0.4,0.8,0.6c0.2,0.2,0.4,0.4,0.5,0.6h0v-1.4h4.1V56.3z M102,49.6c0,0.3,0.1,0.7,0.2,1.1
				c0.1,0.4,0.3,0.8,0.6,1.1s0.6,0.6,1,0.9c0.4,0.2,0.9,0.4,1.6,0.4c0.6,0,1.2-0.1,1.6-0.4c0.4-0.2,0.8-0.5,1.1-0.9
				c0.3-0.4,0.5-0.7,0.6-1.1c0.1-0.4,0.2-0.8,0.2-1.1c0-0.4-0.1-0.8-0.2-1.2c-0.1-0.4-0.4-0.8-0.6-1.1s-0.6-0.6-1.1-0.8
				c-0.4-0.2-0.9-0.3-1.5-0.3c-0.6,0-1.1,0.1-1.5,0.3c-0.4,0.2-0.8,0.5-1,0.8c-0.3,0.3-0.5,0.7-0.6,1.1
				C102.1,48.8,102,49.2,102,49.6z"/>
			<path class="st0" d="M115.9,42.7h3.8v1.4h0c0.1-0.2,0.2-0.4,0.4-0.6s0.4-0.4,0.7-0.6c0.3-0.2,0.6-0.4,1.1-0.5
				c0.4-0.1,0.9-0.2,1.5-0.2c0.7,0,1.3,0.1,1.9,0.3c0.6,0.2,1.2,0.5,1.5,0.8c0.2,0.2,0.4,0.4,0.6,0.6s0.4,0.5,0.5,0.8
				c0.1,0.3,0.3,0.8,0.4,1.2c0.1,0.5,0.1,1.1,0.1,1.7v8.5h-4.1v-7.4c0-0.2,0-0.5,0-0.8c0-0.3-0.1-0.6-0.2-0.9s-0.3-0.5-0.6-0.7
				s-0.7-0.3-1.2-0.3c-0.6,0-1,0.1-1.3,0.3c-0.3,0.2-0.5,0.5-0.7,0.8c-0.1,0.3-0.2,0.6-0.3,0.9c0,0.3,0,0.6,0,0.8v7.4h-4.1V42.7z"/>
			<path class="st0" d="M135.4,56.3h-4.1V42.7h4.1V56.3z"/>
			<path class="st0" d="M145.1,59.1H141v-4.7h4.1V59.1z"/>
			<path class="st0" d="M144.1,46.5c0-0.1,0-0.2,0-0.3c0-0.1-0.1-0.2-0.2-0.3s-0.2-0.2-0.4-0.3c-0.2-0.1-0.4-0.1-0.7-0.1
				c-0.4,0-0.7,0.1-0.9,0.3c-0.2,0.2-0.3,0.4-0.3,0.6c0,0.4,0.2,0.7,0.6,0.9c0.4,0.2,0.9,0.4,1.4,0.6c0.6,0.2,1.1,0.3,1.7,0.5
				c0.6,0.2,1.1,0.4,1.5,0.7s0.8,0.7,1.1,1.2c0.3,0.5,0.4,1.1,0.4,1.8c0,0.7-0.1,1.4-0.4,1.9s-0.7,1.1-1.2,1.5
				c-0.5,0.4-1.1,0.7-1.8,0.9c-0.7,0.2-1.4,0.3-2.1,0.3c-0.5,0-1.1-0.1-1.7-0.2s-1.2-0.4-1.7-0.7c-0.5-0.3-1-0.8-1.4-1.4
				c-0.4-0.6-0.6-1.3-0.7-2.2h4c0,0.3,0.1,0.6,0.3,0.7c0.1,0.2,0.3,0.3,0.5,0.4c0.2,0.1,0.3,0.1,0.5,0.1c0.1,0,0.2,0,0.3,0
				c0.3,0,0.7-0.1,1-0.3c0.3-0.2,0.5-0.4,0.5-0.8c0-0.3-0.1-0.5-0.2-0.6c-0.1-0.2-0.3-0.3-0.6-0.5c-0.3-0.1-0.7-0.3-1.1-0.5
				c-0.5-0.2-1-0.4-1.7-0.6c-0.4-0.1-0.9-0.3-1.2-0.5c-0.4-0.2-0.7-0.5-1-0.8s-0.5-0.6-0.7-1c-0.2-0.4-0.3-0.8-0.3-1.2
				c0-0.7,0.1-1.3,0.4-1.8s0.7-1,1.2-1.4c0.5-0.4,1-0.7,1.7-0.9c0.6-0.2,1.3-0.3,2-0.3c0.4,0,0.9,0.1,1.5,0.2s1.1,0.3,1.6,0.6
				c0.5,0.3,1,0.7,1.4,1.3c0.4,0.6,0.6,1.3,0.7,2.2H144.1z"/>
			<path class="st0" d="M150.6,42.7h3.8v1.4h0c0.1-0.1,0.2-0.3,0.4-0.5s0.4-0.4,0.7-0.6c0.3-0.2,0.6-0.4,1.1-0.5
				c0.4-0.1,1-0.2,1.6-0.2c0.3,0,0.6,0,1,0.1c0.4,0.1,0.7,0.2,1,0.4c0.3,0.2,0.7,0.4,1,0.7c0.3,0.3,0.6,0.7,0.9,1.2
				c0.4-0.7,1-1.2,1.7-1.7c0.7-0.5,1.6-0.7,2.6-0.7c0.2,0,0.5,0,0.8,0c0.3,0,0.6,0.1,0.9,0.2c0.3,0.1,0.6,0.2,1,0.4
				c0.3,0.2,0.6,0.4,0.9,0.7c0.3,0.3,0.6,0.7,0.8,1c0.2,0.3,0.3,0.6,0.5,1s0.2,0.8,0.2,1.4c0,0.5,0,1.1,0,1.9v7.4h-4.1v-7.2
				c0-0.3,0-0.6,0-0.9c0-0.4-0.1-0.7-0.2-1s-0.3-0.6-0.6-0.8c-0.3-0.2-0.7-0.3-1.2-0.3c-0.6,0-1,0.1-1.3,0.3
				c-0.3,0.2-0.5,0.5-0.7,0.8s-0.2,0.6-0.2,0.9c0,0.3,0,0.6,0,0.8v7.4H159v-7.4c0-0.2,0-0.4,0-0.7s-0.1-0.6-0.2-0.9
				c-0.1-0.3-0.3-0.6-0.6-0.8c-0.3-0.2-0.7-0.3-1.2-0.3c-0.6,0-1,0.1-1.3,0.4c-0.3,0.2-0.5,0.5-0.7,0.8s-0.2,0.7-0.3,1
				c0,0.3,0,0.6,0,0.8v7.2h-4.1V42.7z"/>
			<path class="st0" d="M188.6,56.3h-4.1v-1.5h0c-0.2,0.3-0.4,0.6-0.7,0.9c-0.3,0.2-0.6,0.5-1,0.6s-0.7,0.3-1.1,0.4
				s-0.8,0.1-1.2,0.1c-1.1,0-2-0.2-2.9-0.6c-0.9-0.4-1.6-0.9-2.1-1.6s-1-1.4-1.3-2.3s-0.5-1.8-0.5-2.8c0-1.1,0.2-2.1,0.6-3
				c0.4-0.9,0.9-1.7,1.5-2.3s1.3-1.1,2.2-1.4s1.7-0.5,2.6-0.5c0.6,0,1.1,0.1,1.5,0.2c0.4,0.1,0.8,0.3,1.2,0.5
				c0.3,0.2,0.6,0.4,0.8,0.6c0.2,0.2,0.4,0.4,0.5,0.6h0v-1.4h4.1V56.3z M177.8,49.6c0,0.3,0.1,0.7,0.2,1.1c0.1,0.4,0.3,0.8,0.6,1.1
				s0.6,0.6,1,0.9c0.4,0.2,0.9,0.4,1.6,0.4c0.6,0,1.2-0.1,1.6-0.4c0.4-0.2,0.8-0.5,1.1-0.9c0.3-0.4,0.5-0.7,0.6-1.1
				c0.1-0.4,0.2-0.8,0.2-1.1c0-0.4-0.1-0.8-0.2-1.2c-0.1-0.4-0.4-0.8-0.6-1.1s-0.6-0.6-1.1-0.8c-0.4-0.2-0.9-0.3-1.5-0.3
				c-0.6,0-1.1,0.1-1.5,0.3c-0.4,0.2-0.8,0.5-1,0.8c-0.3,0.3-0.5,0.7-0.6,1.1C177.8,48.8,177.8,49.2,177.8,49.6z"/>
			<path class="st0" d="M191.6,42.7h3.8v1.4h0c0.1-0.2,0.2-0.4,0.4-0.6s0.4-0.4,0.7-0.6c0.3-0.2,0.6-0.4,1.1-0.5
				c0.4-0.1,0.9-0.2,1.5-0.2c0.7,0,1.3,0.1,1.9,0.3c0.6,0.2,1.2,0.5,1.5,0.8c0.2,0.2,0.4,0.4,0.6,0.6s0.4,0.5,0.5,0.8
				c0.1,0.3,0.3,0.8,0.4,1.2c0.1,0.5,0.1,1.1,0.1,1.7v8.5h-4.1v-7.4c0-0.2,0-0.5,0-0.8c0-0.3-0.1-0.6-0.2-0.9s-0.3-0.5-0.6-0.7
				s-0.7-0.3-1.2-0.3c-0.6,0-1,0.1-1.3,0.3c-0.3,0.2-0.5,0.5-0.7,0.8c-0.1,0.3-0.2,0.6-0.3,0.9c0,0.3,0,0.6,0,0.8v7.4h-4.1V42.7z"/>
			<path class="st0" d="M207.1,38.2h4.1v18.1h-4.1V38.2z"/>
			<path class="st0" d="M218.2,56.3h-4.1V42.7h4.1V56.3z"/>
			<path class="st0" d="M221.3,38.2h4.1v9.5h0l3.8-4.9h4.8l-5.1,6l5,7.6h-4.6l-3.8-6.5h0v6.5h-4.1V38.2z"/>
		</g>
		<g>
			<path class="st1" d="M80.3,9.4h6.2v9.1h7.9V9.4h6.2v24.3h-6.2V24h-7.9v9.7h-6.2V9.4z"/>
			<path class="st1" d="M112.5,34.2c-1.8,0-3.2-0.3-4.3-0.8c-1.1-0.5-2-1.2-2.7-1.9c-0.7-0.8-1.1-1.6-1.4-2.5
				c-0.3-0.9-0.4-1.7-0.4-2.5v-0.8h6.2c0,0.7,0.1,1.3,0.3,1.7c0.2,0.4,0.4,0.8,0.7,1c0.3,0.2,0.6,0.4,0.8,0.5
				c0.3,0.1,0.5,0.1,0.7,0.1 M112.4,29c0.7,0,1.3-0.2,1.7-0.7s0.6-1,0.6-1.6c0-0.4-0.1-0.7-0.2-1c-0.1-0.3-0.4-0.5-0.8-0.8
				c-0.4-0.2-0.8-0.5-1.5-0.8c-0.6-0.3-1.4-0.6-2.3-1c-0.4-0.2-1-0.4-1.7-0.7c-0.7-0.3-1.3-0.7-2-1.3c-0.6-0.5-1.2-1.2-1.6-2
				c-0.5-0.8-0.7-1.8-0.7-2.9s0.3-2.2,0.8-3c0.5-0.9,1.2-1.6,2-2.2c0.8-0.6,1.7-1.1,2.7-1.4c1-0.3,2-0.5,3.1-0.5
				c1.2,0,2.4,0.2,3.6,0.7c1.2,0.4,2.2,1.1,3,2.1c0.4,0.4,0.6,0.9,0.8,1.3c0.2,0.4,0.4,0.8,0.5,1.2c0.1,0.4,0.2,0.8,0.2,1.2
				c0,0.4,0.1,0.7,0.1,1.1h-6.1c0-0.2-0.1-0.4-0.1-0.7c-0.1-0.3-0.2-0.5-0.3-0.8c-0.2-0.3-0.4-0.5-0.6-0.6c-0.3-0.2-0.7-0.2-1.1-0.2
				c-0.5,0-1,0.2-1.5,0.5c-0.4,0.4-0.7,0.8-0.7,1.4c0,0.4,0.1,0.7,0.2,0.9c0.1,0.2,0.3,0.5,0.7,0.7c0.4,0.3,0.9,0.5,1.5,0.9
				c0.7,0.3,1.5,0.7,2.6,1.2c1.1,0.5,2.1,1,2.8,1.5c0.7,0.5,1.3,1.1,1.7,1.6c0.4,0.6,0.7,1.2,0.9,1.8s0.2,1.3,0.2,2
				c0,0.9-0.1,1.8-0.4,2.7c-0.3,0.9-0.8,1.7-1.4,2.4c-0.7,0.7-1.5,1.3-2.6,1.7c-1.1,0.4-2.4,0.7-4,0.7"/>
			<path class="st1" d="M134.1,9.4h7.5c1,0,1.9,0,2.7,0.1c0.8,0.1,1.5,0.2,2.1,0.3s1.2,0.4,1.6,0.7c0.5,0.3,0.9,0.7,1.4,1.2
				c0.5,0.6,0.9,1.2,1.1,1.9c0.2,0.7,0.3,1.4,0.3,2.1c0,0.9-0.2,1.9-0.7,2.7c-0.4,0.9-1.2,1.6-2.2,2.2c1,0.4,1.7,0.8,2.3,1.3
				c0.5,0.5,0.9,1.1,1.2,1.6c0.3,0.6,0.4,1.1,0.5,1.6c0.1,0.5,0.1,0.9,0.1,1.1c0,1-0.2,2-0.6,2.9c-0.4,1-0.9,1.8-1.7,2.4
				c-0.6,0.5-1.1,0.8-1.6,1.1c-0.5,0.3-1.1,0.5-1.7,0.6s-1.3,0.2-2,0.3c-0.7,0-1.6,0.1-2.7,0.1h-7.7V9.4z M140,18.6h2.2
				c0.2,0,0.5,0,0.8,0c0.3,0,0.6-0.1,0.9-0.2c0.3-0.1,0.5-0.3,0.7-0.6s0.3-0.6,0.3-1.1c0-0.5-0.1-0.8-0.3-1.1
				c-0.2-0.3-0.4-0.4-0.7-0.5c-0.3-0.1-0.5-0.2-0.9-0.2s-0.6,0-0.8,0H140V18.6z M140,28.3h2.9c0.2,0,0.5,0,0.8,0
				c0.4,0,0.7-0.1,1-0.3c0.3-0.2,0.6-0.4,0.9-0.7c0.3-0.3,0.4-0.8,0.4-1.3c0-0.5-0.1-0.9-0.3-1.2c-0.2-0.3-0.5-0.5-0.8-0.6
				c-0.3-0.1-0.7-0.2-1-0.2c-0.4,0-0.6,0-0.9,0H140V28.3z"/>
			<path class="st1" d="M174.2,33.7h-5.5v-2h-0.1c-0.2,0.4-0.5,0.8-0.9,1.1c-0.4,0.3-0.8,0.6-1.3,0.8c-0.5,0.2-1,0.4-1.5,0.5
				c-0.5,0.1-1.1,0.1-1.6,0.1c-1.4,0-2.7-0.3-3.9-0.8s-2.1-1.2-2.9-2.1c-0.8-0.9-1.4-1.9-1.8-3.1c-0.4-1.2-0.6-2.4-0.6-3.7
				c0-1.5,0.3-2.8,0.8-4c0.5-1.2,1.2-2.2,2-3.1c0.8-0.8,1.8-1.5,2.9-1.9c1.1-0.4,2.3-0.7,3.5-0.7c0.7,0,1.4,0.1,2,0.2
				c0.6,0.2,1.1,0.4,1.5,0.6c0.4,0.3,0.8,0.5,1.1,0.8c0.3,0.3,0.5,0.6,0.7,0.9h0.1v-1.9h5.5V33.7z M159.7,24.6
				c0,0.4,0.1,0.9,0.2,1.4c0.2,0.5,0.4,1,0.8,1.5c0.4,0.5,0.8,0.9,1.4,1.2c0.6,0.3,1.3,0.5,2.1,0.5c0.9,0,1.6-0.2,2.2-0.5
				c0.6-0.3,1.1-0.7,1.4-1.2c0.4-0.5,0.6-1,0.8-1.5c0.2-0.5,0.2-1,0.2-1.5c0-0.5-0.1-1.1-0.3-1.6c-0.2-0.5-0.5-1-0.9-1.5
				s-0.9-0.8-1.4-1.1s-1.3-0.4-2-0.4c-0.8,0-1.5,0.1-2,0.4c-0.6,0.3-1,0.7-1.4,1.1s-0.6,1-0.8,1.5C159.8,23.6,159.7,24.1,159.7,24.6
				z"/>
			<path class="st1" d="M178.4,9.4h5.5v12.7h0.1l5.1-6.6h6.5l-6.9,8l6.7,10.2h-6.2l-5.2-8.8h-0.1v8.8h-5.5V9.4z"/>
			<path class="st1" d="M203.1,33.7h-5.5V15.5h5.5V33.7z"/>
			<path class="st1" d="M225.4,26.8c-0.2,1-0.6,2-1.2,2.9c-0.6,0.9-1.3,1.7-2.1,2.4c-0.8,0.7-1.8,1.2-2.8,1.6
				c-1.1,0.4-2.2,0.6-3.4,0.6c-1.4,0-2.7-0.3-3.9-0.8c-1.2-0.5-2.2-1.2-3.1-2.1c-0.9-0.9-1.5-1.9-2-3.1c-0.5-1.2-0.8-2.5-0.8-3.8
				c0-1.3,0.2-2.6,0.7-3.8c0.5-1.2,1.2-2.2,2-3.1s1.9-1.6,3-2.1c1.2-0.5,2.4-0.8,3.8-0.8c1.2,0,2.3,0.2,3.4,0.6s2,0.9,2.9,1.6
				s1.6,1.5,2.1,2.4c0.6,0.9,1,2,1.2,3.1h-5.5c-0.2-0.3-0.3-0.6-0.6-0.9c-0.2-0.3-0.5-0.6-0.8-0.8c-0.3-0.2-0.7-0.4-1.1-0.6
				c-0.4-0.2-0.9-0.2-1.5-0.2c-0.7,0-1.2,0.1-1.8,0.3c-0.5,0.2-1,0.6-1.4,1c-0.4,0.4-0.7,0.9-0.9,1.5c-0.2,0.6-0.3,1.2-0.3,1.9
				c0,0.7,0.1,1.3,0.3,1.8c0.2,0.6,0.5,1.1,0.9,1.5s0.8,0.7,1.4,1c0.5,0.2,1.1,0.3,1.8,0.3c0.6,0,1.1-0.1,1.5-0.2s0.8-0.3,1.1-0.6
				s0.6-0.5,0.8-0.8c0.2-0.3,0.4-0.6,0.6-0.9H225.4z"/>
			<path class="st1" d="M233.9,33.7h-5.5V15.5h5.5V33.7z"/>
		</g>
	</g>
</g>
</svg>
