<?xml version="1.0" encoding="utf-8"?>
<!-- Generator: Adobe Illustrator 24.0.1, SVG Export Plug-In . SVG Version: 6.00 Build 0)  -->
<svg version="1.1" id="Layer_1" xmlns="http://www.w3.org/2000/svg" xmlns:xlink="http://www.w3.org/1999/xlink" x="0px" y="0px"
	 width="71.2px" height="63.5px" viewBox="0 0 71.2 63.5" style="enable-background:new 0 0 71.2 63.5;" xml:space="preserve">
<style type="text/css">
	.st0{fill:#25A9E0;}
	.st1{fill:#F05A28;}
</style>
<path class="st0" d="M47.3,45.4l-2-2l0,0l12.1-12.1c2.5-2.5,3.8-5.8,3.8-9.1c0-3.3-1.3-6.6-3.8-9.1l0,0c-2.5-2.5-5.8-3.8-9.1-3.8
	c-3.3,0-6.6,1.3-9.1,3.8l-3.6,3.6L32,13.1c-2.5-2.5-5.8-3.8-9.1-3.8v0c-3.3,0-6.6,1.3-9.1,3.8c-2.5,2.5-3.8,5.8-3.8,9.1
	c0,3.3,1.3,6.6,3.8,9.1l23.8,23.8l-2,2L11.8,33.3c-3.1-3.1-4.6-7.1-4.6-11.1c0-4,1.5-8.1,4.6-11.1c3.1-3.1,7.1-4.6,11.1-4.6v0
	C26.9,6.4,31,8,34,11l1.5,1.5l1.6-1.6c3.1-3.1,7.1-4.6,11.1-4.6c4,0,8.1,1.5,11.1,4.6l0,0C62.5,14,64,18.1,64,22.1
	c0,4-1.5,8.1-4.6,11.1L47.3,45.4"/>
<path class="st1" d="M42,38.6l11.4-11.4c1.4-1.4,2.1-3.2,2.1-5.1c0-1.8-0.7-3.7-2.1-5.1C52,15.7,50.1,15,48.3,15v0
	c-1.8,0-3.7,0.7-5.1,2.1l-7.6,7.6L28,17.1c-1.4-1.4-3.2-2.1-5.1-2.1v0c-1.8,0-3.7,0.7-5.1,2.1c-1.4,1.4-2.1,3.2-2.1,5.1h0
	c0,1.8,0.7,3.7,2.1,5.1L41.6,51l-2,2L15.8,29.3c-1.9-1.9-2.9-4.5-2.9-7.1h0c0-2.6,1-5.1,2.9-7.1c2-1.9,4.5-2.9,7.1-2.9v0
	c2.6,0,5.1,1,7.1,2.9l5.6,5.6l5.6-5.6c1.9-1.9,4.5-2.9,7.1-2.9v0c2.6,0,5.1,1,7.1,2.9c1.9,1.9,2.9,4.5,2.9,7.1s-1,5.1-2.9,7.1
	L44,40.6L42,38.6L42,38.6z"/>
<path class="st0" d="M37.9,34.6l11.4-11.4l0,0c0.3-0.3,0.4-0.6,0.4-1c0-0.4-0.1-0.7-0.4-1l0,0c-0.3-0.3-0.6-0.4-1-0.4
	c-0.4,0-0.7,0.1-1,0.4L35.6,32.8L23.9,21.2c-0.3-0.3-0.6-0.4-1-0.4c-0.4,0-0.8,0.1-1,0.4h0c-0.3,0.3-0.4,0.6-0.4,1
	c0,0.4,0.1,0.8,0.4,1l0,0L45.7,47l-2,2L19.8,25.2v0c-0.8-0.8-1.2-1.9-1.2-3c0-1.1,0.4-2.2,1.2-3l0,0c0.8-0.8,1.9-1.2,3-1.2
	c1.1,0,2.2,0.4,3.1,1.2l9.6,9.6l9.7-9.7c0.8-0.8,1.9-1.2,3-1.2c1.1,0,2.2,0.4,3,1.2h0c0.8,0.8,1.2,1.9,1.2,3.1c0,1.1-0.4,2.2-1.2,3
	v0L39.9,36.6L37.9,34.6L37.9,34.6z"/>
</svg>
